<?xml version="1.0" encoding="UTF-8"?>
<!DOCTYPE svg PUBLIC "-//W3C//DTD SVG 1.1//EN" "http://www.w3.org/Graphics/SVG/1.1/DTD/svg11.dtd">
<svg version="1.1" xmlns="http://www.w3.org/2000/svg" xmlns:xlink="http://www.w3.org/1999/xlink" x="0" y="0" width="458" height="510" viewBox="0, 0, 458, 510">
  <g id="Layer_1">
    <path d="M282.491,499.188 L78.705,498.436 C83.226,442.586 98.322,336.914 98.322,336.914 L115.689,327.857 L145.874,331.633 L170.026,387.482 L208.523,331.633 L286.168,324.3 L315.714,345.211 C360.236,394.282 388.171,484.092 388.171,484.092 L288.538,506.732 L283.244,487.868" fill="#CAA588"/>
    <path d="M56.823,382.195 C56.823,382.195 16.816,446.356 7.76,480.316 L78.705,498.436" fill="#CAA588"/>
    <path d="M145.874,331.633 L170.026,387.482 L211.546,333.891 L145.874,331.633" fill="#F0CFB6"/>
    <path d="M115.268,332.955 L166.244,437.299 L244.347,326.465 M22.089,459.188 L71.905,471.26 M286.268,481.068 L375.339,459.94" fill-opacity="0" stroke="#CE7238" stroke-width="18" stroke-linecap="round" stroke-linejoin="round"/>
    <path d="M67.3,168.487 C67.3,168.487 10.543,209.029 15.395,265.793 C20.261,322.563 137.05,330.368 160.549,331.479 C205.168,333.581 315.277,317.121 315.277,317.121 C315.277,317.121 369.77,329.855 372.189,290.93 C374.636,252.012 361.643,231.733 347.861,234.166 C334.08,236.599 318.682,246.33 318.682,246.33 C318.682,246.33 284.636,123.072 178.394,124.704 C72.151,126.321 67.3,168.487 67.3,168.487" fill="#F0CFB6"/>
    <path d="M98.111,267.81 C98.111,290.438 79.956,308.768 57.562,308.768 C35.167,308.768 17.026,290.438 17.026,267.81 C17.026,245.205 35.167,226.868 57.562,226.868 C79.956,226.868 98.111,245.205 98.111,267.81" fill="#EEAFBD"/>
    <path d="M65.296,242.815 C66.421,247.385 61.689,252.482 54.729,254.198 C47.768,255.914 41.229,253.607 40.104,249.037 C38.979,244.474 43.71,239.376 50.671,237.654 C57.611,235.945 64.171,238.251 65.296,242.815" fill="#FFFFFE"/>
    <path d="M327.597,277.542 C327.597,300.162 309.441,318.499 287.041,318.499 C264.667,318.499 246.512,300.162 246.512,277.542 C246.512,254.937 264.667,236.599 287.041,236.599 C309.441,236.599 327.597,254.937 327.597,277.542" fill="#EEAFBD"/>
    <path d="M294.775,252.546 C295.9,257.116 291.175,262.207 284.214,263.93 C277.253,265.645 270.714,263.332 269.589,258.769 C268.464,254.205 273.189,249.107 280.15,247.399 C287.097,245.676 293.65,247.982 294.775,252.546" fill="#FFFFFE"/>
    <path d="M103.848,225.3 C103.848,241.338 95.902,254.346 86.088,254.346 C76.3,254.346 68.355,241.338 68.355,225.3 C68.355,209.269 76.3,196.268 86.088,196.268 C95.902,196.268 103.848,209.269 103.848,225.3" fill="#563E26"/>
    <path d="M274.215,240.79 C274.215,256.828 266.27,269.829 256.455,269.829 C246.667,269.829 238.722,256.828 238.722,240.79 C238.722,224.751 246.667,211.751 256.455,211.751 C266.27,211.751 274.215,224.751 274.215,240.79" fill="#563E26"/>
    <path d="M174.822,234.335 C174.822,234.335 152.744,228.267 147.723,241.43 C142.569,254.986 155.472,264.668 171.609,263.381 M141.916,274.99 C141.916,274.99 143.223,296.927 168.374,298.868 C191.226,300.619 199.994,279.504 199.994,279.504 M98.322,336.914 C98.322,336.914 83.226,442.586 78.705,498.436 L282.491,499.188" fill-opacity="0" stroke="#563E26" stroke-width="9" stroke-linecap="round" stroke-linejoin="round"/>
    <path d="M42.48,188.977 L67.385,165.576 C67.385,165.576 145.121,151.992 176.073,121.807 C176.073,121.807 240.986,228.225 327.034,242.568 C327.034,242.568 353.387,256.617 349.619,206.048 C345.843,155.48 304.9,127.453 229.194,97.162 C119.683,53.357 37.191,133.12 42.48,188.977" fill="#595A59"/>
    <path d="M63.187,164.332 C63.187,164.332 146.527,160.219 175.335,120.091 C175.335,120.091 233.996,215.779 323.504,242.52 M147.386,333.891 L171.538,388.994 L209.275,333.138 M274.637,473.566 L288.538,506.732 L388.171,484.092 C388.171,484.092 360.236,394.282 315.714,345.211 M43.886,406.502 C43.886,406.502 16.816,446.356 7.76,480.316 L78.705,498.436" fill-opacity="0" stroke="#563E26" stroke-width="9" stroke-linecap="round" stroke-linejoin="round"/>
    <path d="M56.859,169.275 C56.859,169.275 73.432,130.336 128.246,125.287 C183.049,120.232 248.671,141.143 289.769,174.316 C330.866,207.49 346.019,232.725 346.019,232.725 L364.033,245.705 C364.033,245.705 370.262,148.188 274.637,99.328 C175.827,48.851 87.866,76.976 56.135,134.66 C56.135,134.66 38.105,164.943 41.003,190.903 L56.859,169.275" fill="#DD4145"/>
    <path d="M366.916,248.594 C366.916,248.594 360.89,86.123 188.448,76.617 C51.093,69.044 39.189,191.262 39.189,191.262 M24.043,211.814 C24.043,211.814 -24.613,112.308 37.03,63.63 C98.674,14.96 213.339,-2.344 298.783,9.553 C298.783,9.553 238.215,26.857 241.464,26.857 C244.698,26.857 338.791,10.636 385.309,43.085 L351.784,49.568 C351.784,49.568 396.137,50.65 428.58,91.755 C461.015,132.86 451.291,179.365 451.291,179.365 L426.4,155.571 C426.4,155.571 463.194,216.138 450.207,292.934 L432.91,277.795 C432.91,277.795 458.855,339.445 437.229,387.04 L426.4,370.812 C426.4,370.812 423.166,431.379 380.979,456.255" fill-opacity="0" stroke="#563E26" stroke-width="9" stroke-linecap="round" stroke-linejoin="round"/>
    <path d="M62.996,318.893 L33.775,460.586 L86.776,464.911 L103.004,329.707" fill="#DD4145"/>
    <path d="M62.996,318.893 L33.775,460.586 L86.776,464.911 L103.004,329.707 M64.965,168.762 C64.663,169.015 64.432,169.141 64.276,169.141 C64.276,169.141 -11.717,237.063 23.179,286.606 C63.187,343.39 216.77,341.456 315.518,315.321 C315.518,315.321 382.566,327.204 373.581,270.792 C365.847,222.072 335.838,234.989 317.768,245.951" fill-opacity="0" stroke="#563E26" stroke-width="9" stroke-linecap="round" stroke-linejoin="round"/>
    <path d="M311.762,201 C311.762,201 279.307,389.198 244.698,465.994 L293.369,473.566 C293.369,473.566 344.205,279.954 346.37,235.607" fill="#DD4145"/>
    <path d="M311.762,201 C311.762,201 279.307,389.198 244.698,465.994 L293.369,473.566 C293.369,473.566 344.205,279.954 346.37,235.607 C346.37,235.607 277.569,137.093 178.394,124.704 C79.218,112.308 57.582,172.875 57.582,172.875" fill-opacity="0" stroke="#563E26" stroke-width="9" stroke-linecap="round" stroke-linejoin="round"/>
    <path d="M196.745,9.194 L225.588,15.684 L190.98,46.692 C190.98,46.692 273.189,38.037 313.569,42.368 L285.444,56.789 C285.444,56.789 366.916,61.83 402.972,96.445 C426.16,118.685 431.814,136.826 431.814,136.826 L389.275,121.68 C406.15,158.334 408.16,165.457 423.89,208.938 C436.145,242.822 438.304,258.684 438.304,258.684 L408.752,252.201 C408.752,252.201 428.214,324.3 429.655,346.652 L408.752,340.169 C408.752,340.169 420.283,412.275 406.572,436.068 L429.655,377.66 L436.862,389.922 C436.862,389.922 449.132,358.915 446.249,345.935 C443.366,332.955 435.421,283.202 435.421,283.202 L450.207,292.934 C450.207,292.934 458.504,254.36 452.015,234.166 C445.525,213.98 430.379,162.785 430.379,162.785 L454.174,179.365 C454.174,179.365 454.898,123.846 432.538,94.279 C410.179,64.713 365.48,48.133 365.48,48.133 L385.309,43.085 C385.309,43.085 333.749,21.45 312.128,21.45 C290.486,21.45 252.995,22.174 252.995,22.174 L294.093,7.753 C294.093,7.753 219.105,4.146 197.463,6.305" fill="#563E26"/>
  </g>
</svg>
